<?xml version="1.0" encoding="UTF-8"?>
<svg width="200px" height="196px" viewBox="0 0 200 196" version="1.1" xmlns="http://www.w3.org/2000/svg" xmlns:xlink="http://www.w3.org/1999/xlink" xmlns:sketch="http://www.bohemiancoding.com/sketch/ns">
    <!-- Generator: Sketch 3.3.3 (12081) - http://www.bohemiancoding.com/sketch -->
    <title>Github</title>
    <desc>Created with Sketch.</desc>
    <defs></defs>
    <g id="Page-1" stroke="none" stroke-width="1" fill="none" fill-rule="evenodd" sketch:type="MSPage">
        <g id="Github" sketch:type="MSLayerGroup" fill="#FFFFFF">
            <g id="Page-1" sketch:type="MSShapeGroup">
                <g id="Github">
                    <g id="Page-1">
                        <path d="M99.99375,0 C44.775,0 0,44.76875 0,100.00625 C0,144.18125 28.65,181.6625 68.39375,194.8875 C73.39375,195.80625 75.21875,192.71875 75.21875,190.06875 C75.21875,187.69375 75.13125,181.40625 75.08125,173.0625 C47.2625,179.10625 41.39375,159.65625 41.39375,159.65625 C36.85,148.10625 30.29375,145.03125 30.29375,145.03125 C21.2125,138.825 30.98125,138.95 30.98125,138.95 C41.0125,139.65625 46.29375,149.25625 46.29375,149.25625 C55.21875,164.5375 69.7,160.125 75.4,157.5625 C76.30625,151.1 78.89375,146.69375 81.75,144.19375 C59.54375,141.66875 36.2,133.09375 36.2,94.775 C36.2,83.85625 40.09375,74.93125 46.49375,67.9375 C45.4625,65.40625 42.03125,55.24375 47.46875,41.475 C47.46875,41.475 55.86875,38.7875 74.96875,51.725 C82.95,49.50625 91.5,48.4 100.00625,48.35625 C108.5,48.4 117.05625,49.50625 125.04375,51.725 C144.13125,38.7875 152.5125,41.475 152.5125,41.475 C157.96875,55.24375 154.5375,65.40625 153.50625,67.9375 C159.91875,74.93125 163.7875,83.85625 163.7875,94.775 C163.7875,133.1875 140.40625,141.64375 118.13125,144.11875 C121.71875,147.20625 124.91875,153.30625 124.91875,162.6375 C124.91875,176.00625 124.79375,186.7875 124.79375,190.06875 C124.79375,192.74375 126.59375,195.85625 131.66875,194.875 C171.375,181.625 200,144.16875 200,100.00625 C200,44.76875 155.225,0 99.99375,0" id="Fill-34"></path>
                    </g>
                </g>
            </g>
        </g>
    </g>
</svg>